HIERARCHY
ROOT hip
{
	OFFSET 0.000000 0.000000 0.000000 
	CHANNELS 6 Xposition Yposition Zposition Zrotation Xrotation Yrotation
	JOINT abdomen
	{
		OFFSET 0.000000 3.402643 0.000000 
		CHANNELS 3 Zrotation Xrotation Yrotation
		JOINT chest
		{
			OFFSET 0.000000 8.438565 -0.680529 
			CHANNELS 3 Zrotation Xrotation Yrotation
			JOINT neck
			{
				OFFSET 0.000000 10.207942 -0.272212 
				CHANNELS 3 Zrotation Xrotation Yrotation
				JOINT head
				{
					OFFSET 0.000000 3.130431 0.000000 
					CHANNELS 3 Zrotation Xrotation Yrotation
					End Site
					{
						OFFSET 0.000000 3.130435 0.000000 
					}
				}
			}
			JOINT lCollar
			{
				OFFSET 3.470700 6.669187 -0.816635 
				CHANNELS 3 Zrotation Xrotation Yrotation
				JOINT lShldr
				{
					OFFSET 3.198488 0.000000 0.000000 
					CHANNELS 3 Zrotation Xrotation Yrotation
					JOINT lForeArm
					{
						OFFSET 10.139888 0.000000 0.000000 
						CHANNELS 3 Zrotation Xrotation Yrotation
						JOINT lHand
						{
							OFFSET 8.370511 0.000000 0.000000 
							CHANNELS 3 Zrotation Xrotation Yrotation
							End Site
							{
								OFFSET 4.083176 0.000000 0.000000 
							}
						}
					}
				}
			}
			JOINT rCollar
			{
				OFFSET -3.470700 6.669187 -0.816635 
				CHANNELS 3 Zrotation Xrotation Yrotation
				JOINT rShldr
				{
					OFFSET -3.198488 0.000000 0.000000 
					CHANNELS 3 Zrotation Xrotation Yrotation
					JOINT rForeArm
					{
						OFFSET -10.139888 0.000000 0.000000 
						CHANNELS 3 Zrotation Xrotation Yrotation
						JOINT rHand
						{
							OFFSET -8.370511 0.000000 0.000000 
							CHANNELS 3 Zrotation Xrotation Yrotation
							End Site
							{
								OFFSET -4.083176 0.000000 0.000000 
							}
						}
					}
				}
			}
		}
	}
	JOINT lThigh
	{
		OFFSET 5.308129 -1.633274 1.361059 
		CHANNELS 3 Zrotation Xrotation Yrotation
		JOINT lShin
		{
			OFFSET -2.041588 -20.007561 0.000000 
			CHANNELS 3 Zrotation Xrotation Yrotation
			JOINT lFoot
			{
				OFFSET 0.000000 -19.190928 -1.224953 
				CHANNELS 3 Zrotation Xrotation Yrotation
				End Site
				{
					OFFSET 0.000000 -2.449906 4.627600 
				}
			}
		}
	}
	JOINT rThigh
	{
		OFFSET -5.308129 -1.633274 1.361059 
		CHANNELS 3 Zrotation Xrotation Yrotation
		JOINT rShin
		{
			OFFSET 2.041588 -20.007561 0.000000 
			CHANNELS 3 Zrotation Xrotation Yrotation
			JOINT rFoot
			{
				OFFSET 0.000000 -19.190928 -1.224953 
				CHANNELS 3 Zrotation Xrotation Yrotation
				End Site
				{
					OFFSET 0.000000 -2.449906 4.627600 
				}
			}
		}
	}
}
MOTION
Frames: 10
Frame Time: 0.033333
0.940288 50.602955 -1.974222 2.509786 -0.234150 -11.454581 -0.000000 -0.000002 -0.000000 -0.244243 1.650375 -13.596521 -3.379075 10.694695 14.690276 -0.954937 -15.993991 -0.145955 -2.000757 -0.069240 1.990978 -72.570587 -11.460763 9.009210 0.829168 10.814937 -11.224497 -20.813204 8.144187 -0.532717 1.990970 -0.069577 -2.000746 75.312027 10.899444 2.376885 -2.858759 14.756082 12.599480 21.140133 -7.737527 3.676094 2.539877 -18.280384 -5.940559 -5.813452 30.149323 2.396330 -0.839413 -6.338107 3.770863 -10.500566 -5.507540 2.639062 6.006999 18.123453 1.313245 -2.352235 -19.414234 -3.943068 
1.102378 50.440872 -1.355104 4.150573 0.535700 -16.933407 -0.000000 -0.000002 -0.000000 -0.273486 1.074211 -12.846434 -2.658645 12.291841 11.874987 -0.954937 -15.993991 -0.145955 -2.000757 -0.069240 1.990978 -71.796066 -11.158759 9.457742 0.785480 10.823596 -10.777396 -20.794979 8.153872 -0.522865 1.990970 -0.069577 -2.000746 75.097542 10.920373 4.117657 -2.349460 14.853395 10.561616 21.200743 -7.727608 3.695719 0.303553 -20.608669 -10.170242 -5.670538 28.939877 2.351207 -0.898538 -6.223217 2.871211 -12.636332 -7.296554 2.633520 6.211735 18.645744 1.248326 -1.068849 -20.200937 1.756625 
1.264479 50.291656 -0.735979 4.326876 1.032206 -20.712860 -0.000000 -0.000002 -0.000000 -0.292980 0.498043 -12.097061 -1.850626 13.840704 9.075672 -0.954937 -15.993991 -0.145955 -2.000757 -0.069240 1.990978 -71.028709 -10.875544 9.876381 0.739795 10.832146 -10.320314 -20.785210 8.153962 -0.522865 1.990970 -0.069577 -2.000746 74.858925 10.940830 5.868753 -1.834981 14.924215 8.521742 21.251581 -7.717690 3.715342 1.995584 -20.828093 -5.352305 -4.573325 23.913767 1.838058 -0.362088 -4.588645 -5.804668 -13.124593 -8.100792 2.458541 6.256540 18.775955 1.228636 -0.048758 -20.386324 5.601173 
1.395634 50.147076 -0.138995 3.331522 1.686600 -23.515566 -0.000000 -0.000002 -0.000000 -0.263675 0.302729 -11.658765 -0.990649 14.968564 6.593625 -0.954937 -15.993991 -0.145955 -2.000757 -0.069240 1.990978 -70.385902 -10.659406 9.958711 0.718154 10.830208 -10.051806 -20.767078 8.153975 -0.513001 1.990970 -0.069577 -2.000746 74.507973 10.946752 7.739320 -1.355317 14.973947 6.662622 21.312220 -7.708400 3.734970 4.118999 -21.320511 -1.019030 -3.490612 18.672012 1.370167 -0.030761 -0.171876 -10.804958 -12.390707 -10.325023 1.498782 7.388286 21.727779 0.833056 -0.301300 -19.760328 7.358615 
1.464924 50.000980 0.413730 1.876569 2.342495 -25.711493 -0.000000 -0.000002 -0.000000 -0.107434 0.878906 -11.873368 -0.202473 15.283105 4.750604 -0.954937 -15.993991 -0.145955 -2.000757 -0.069240 1.990978 -69.949219 -10.600334 9.429938 0.721381 10.832309 -10.171161 -20.757227 8.163656 -0.513012 1.990970 -0.069577 -2.000746 73.992981 10.955733 9.829314 -0.991386 15.011053 5.177027 21.363653 -7.707595 3.754673 6.368875 -22.388044 0.001693 -4.296721 22.975470 1.678386 0.490711 -3.602010 -10.366176 -10.669085 -12.715634 -0.961870 8.272336 23.140738 0.441929 -1.492736 -17.055185 5.938382 
1.441400 49.850861 0.900059 0.615905 2.675626 -27.489580 -0.000000 -0.000002 -0.000000 0.234615 2.587870 -13.067235 0.403338 14.423475 3.932734 -0.954937 -15.993991 -0.145955 -2.000757 -0.069240 1.990978 -69.816994 -10.812793 8.004348 0.792649 10.823979 -10.866882 -20.748774 8.173435 -0.503159 1.990970 -0.069577 -2.000746 73.205505 10.912673 12.286094 -0.747756 15.024895 4.236812 21.414516 -7.698310 3.774302 8.091959 -22.938540 0.577814 -4.876493 26.027693 1.906791 0.834544 -5.969231 -9.633348 -8.500298 -13.602013 -3.541476 8.043954 22.076313 0.450591 -2.804326 -15.968497 3.625189 
1.294137 49.697529 1.297865 0.195472 2.314440 -29.050850 -0.000000 -0.000002 -0.000000 0.932492 5.790258 -15.572440 0.788866 12.049672 4.464213 -0.954937 -15.993991 -0.145955 -2.000757 -0.069240 1.990978 -70.050919 -11.338599 5.338869 0.945978 10.796874 -12.327440 -20.730642 8.173446 -0.493293 1.990970 -0.069577 -2.000746 72.181229 10.801891 15.207431 -0.697948 15.027176 4.044713 21.466604 -7.687665 3.803770 8.493441 -22.725479 0.564646 -5.149167 27.374680 2.051828 0.930773 -7.033492 -8.468173 -7.189780 -14.730281 -6.020529 7.901338 21.438551 0.482523 -4.553882 -14.927824 1.072242 
0.964864 47.873192 1.628622 0.498191 1.376901 -30.490444 -0.000000 -0.000002 -0.000000 2.346055 10.772433 -19.618029 1.064591 7.820929 6.408010 -0.954937 -15.993991 -0.145955 -2.000757 -0.069240 1.990978 -70.706093 -12.341039 1.219591 1.172189 10.749776 -14.512656 -20.720882 8.173532 -0.493293 1.990970 -0.069577 -2.000746 70.942764 10.275775 18.928135 -0.818516 15.021309 4.509791 21.517458 -7.678392 3.823396 9.037248 -27.795723 0.441900 -8.180172 39.209248 3.794377 1.669467 -13.239538 -6.726589 -10.634007 -21.433243 -4.560149 14.497210 35.848278 -2.820501 -7.484595 -22.205267 -0.508228 
0.455093 46.121460 1.928532 0.957040 0.244107 -31.800804 -0.000000 -0.000002 -0.000000 4.876204 17.177626 -25.095634 1.504807 1.981732 9.449902 -0.954937 -15.993991 -0.145955 -2.000757 -0.069240 1.990978 -71.645622 -13.724692 -4.212280 1.450037 10.690284 -17.203741 -20.702671 8.183306 -0.483439 1.990970 -0.069577 -2.000746 69.789063 9.140400 23.499554 -1.046158 14.997870 5.429518 22.624413 -7.469105 4.254919 8.941767 -31.504007 0.125486 -11.105978 47.779900 5.901359 2.050471 -17.453550 -4.846938 -13.133957 -26.561199 -2.827905 20.803717 45.761307 -7.027974 -9.601091 -26.928015 -2.314864 
-0.176455 44.412590 2.197447 1.523701 -1.064077 -32.999039 -0.000000 -0.000002 -0.000000 8.814578 24.313892 -32.177246 2.450539 -4.946669 13.414976 -0.954937 -15.993991 -0.145955 -2.000757 -0.069240 1.990978 -72.499100 -15.342848 -10.586503 1.769886 10.595745 -20.289610 -20.692902 8.183308 -0.483439 1.990970 -0.069577 -2.000746 68.929909 7.401935 28.491238 -1.372847 14.972152 6.692914 24.102066 -7.200531 4.823284 8.291965 -34.619198 -0.408006 -14.452442 54.779705 8.584576 2.335256 -20.720915 -2.841974 -15.346383 -31.052084 -1.000322 28.082638 53.673698 -12.620569 -11.263326 -30.682091 -4.178209 
